<svg height="363" viewBox="0 0 1049.061 363" width="1049.061" xmlns="http://www.w3.org/2000/svg"><defs><clipPath id="a"><path d="M496.128 140.5h120v56h-120z"/></clipPath><clipPath id="b"><path d="M496.128 236.5h120v56h-120z"/></clipPath><clipPath id="c"><path d="M636.128 188h116v56h-116z"/></clipPath><clipPath id="d"><path d="M636.128 284h116v56h-116z"/></clipPath><clipPath id="e"><path d="M806.29 140.5h107.835v56H806.29z"/></clipPath><clipPath id="f"><path d="M636.128 92h115.1v56h-115.1z"/></clipPath><clipPath id="g"><path d="M806.29 233.5h107.035v56H806.29z"/></clipPath><clipPath id="h"><path d="M934.125 188h94.936v56h-94.936z"/></clipPath><clipPath id="i"><path d="M108.266 76.1h141v184.4h-141z"/></clipPath><clipPath id="j"><path d="M367.8 120.123H474v96.354H367.8z"/></clipPath><clipPath id="k"><path d="M496.128 44.5h120v56h-120z"/></clipPath></defs><g fill="none"><path d="M345.128 0h427v363h-427z" fill="#e1f6fe"/><path d="M345.128 0h427v363h-427z"/><text fill="#757575" transform="translate(355.128 15)"><tspan font-family="Roboto" font-size="10" font-weight="400" x="0" y="9">Data analytics in the cloud</tspan></text><path d="M786.29 0h262.771v363H786.29z" fill="#e2f3ec"/><path d="M786.29 0h262.771v363H786.29z"/><text fill="#757575" transform="translate(796.29 15)"><tspan font-family="Roboto" font-size="10" font-weight="400" x="0" y="9">Data usage</tspan></text><path d="M88.05 0h181v363h-181z" fill="#e1f6fe"/><path d="M88.05 0h181v363h-181z"/><text fill="#757575" transform="translate(98.05 15)"><tspan font-family="Roboto" font-size="10" font-weight="400" x="0" y="9">Edge device</tspan></text><path d="M496.128 140.5h120v56h-120z" fill="#fff"/><path clip-path="url(#a)" d="M496.128 140.5h120v56h-120z" stroke="#dfdfdf" stroke-linecap="round" stroke-linejoin="round" stroke-width="2"/><text fill="#212121" transform="translate(547.128 154.5)"><tspan font-family="Roboto" font-size="12" font-weight="400" x="0" y="11">Cloud </tspan><tspan font-family="Roboto" font-size="12" font-weight="400" x="0" y="25">Pub/Sub</tspan></text><path d="M539.794 166.917l-5.754-10.006c-.461-.799-1.297-1.286-2.158-1.286h-11.508c-.922 0-1.727.54-2.158 1.285l-5.754 9.987a2.51 2.51 0 0 0 0 2.501l5.754 10.052c.46.799 1.297 1.332 2.157 1.332h11.508c.923 0 1.728-.582 2.158-1.326l5.754-10.007a2.566 2.566 0 0 0 .001-2.532" fill="#4285f4"/><path d="M531.644 164.647l-1.281.266-3.195-3.194-1.022 1.912-.554 2.21.938.94-1.802.367-2.471-2.47-1.678 1.613 3.09 3.088-3.275 2.604 8.8 8.798h2.687c.923 0 1.728-.58 2.159-1.325l4.531-7.882z" fill="#000" fill-opacity=".07"/><path d="M530.253 164.477a1.164 1.164 0 1 1 1.166 2.015 1.164 1.164 0 0 1-1.166-2.015m-9.415 2.016a1.165 1.165 0 1 1 1.165-2.017 1.165 1.165 0 0 1-1.165 2.017m6.454 7.145a1.164 1.164 0 1 1-2.328.001 1.164 1.164 0 0 1 2.328 0m-1.164-7.856c.185 0 .364.023.537.063v-3.08h-1.075v3.08c.173-.04.353-.063.538-.063m2.312 3.134a2.41 2.41 0 0 1-.54.93l2.666 1.54.538-.932zm-4.624 0l-2.664 1.538.537.931 2.667-1.54a2.409 2.409 0 0 1-.54-.929m4.194-.714a1.881 1.881 0 1 1-3.762 0 1.881 1.881 0 0 1 3.762 0" fill="#fff"/><path d="M520.681 169.64a1.48 1.48 0 1 1 1.478 2.563 1.48 1.48 0 0 1-1.478-2.563m9.415 2.56a1.479 1.479 0 1 1 1.48-2.558 1.479 1.479 0 0 1-1.48 2.558m-2.49-9.433a1.479 1.479 0 1 1-2.957 0 1.479 1.479 0 0 1 2.957 0M496.128 236.5h120v56h-120z" fill="#fff"/><path clip-path="url(#b)" d="M496.128 236.5h120v56h-120z" stroke="#dfdfdf" stroke-linecap="round" stroke-linejoin="round" stroke-width="2"/><text fill="#212121" transform="translate(547.128 250.5)"><tspan font-family="Roboto" font-size="12" font-weight="400" x="0" y="11">Cloud</tspan> <tspan font-family="Roboto" font-size="12" font-weight="400" x="0" y="25">Dataflow</tspan></text><path d="M539.794 263.214l-5.754-10.006c-.461-.8-1.297-1.286-2.158-1.286h-11.508c-.922 0-1.727.54-2.158 1.285l-5.754 9.986a2.51 2.51 0 0 0 0 2.502l5.754 10.052c.46.798 1.297 1.331 2.157 1.331h11.508c.923 0 1.728-.581 2.158-1.326l5.754-10.006a2.566 2.566 0 0 0 .001-2.532" fill="#4285f4"/><path d="M529.708 258.298l-3.553.834-3.608-.834 1.98 1.98-3.2 2.953.846.847-.787 1.01.988.986-1.048 1.212 3.017 3.016-1.796.455 6.321 6.321h3.013c.923 0 1.728-.581 2.159-1.326l4.79-8.332z" fill="#000" fill-opacity=".07"/><path d="M530.319 263.75a.782.782 0 1 1 0 1.565.782.782 0 0 1 0-1.565m-8.382 0a.782.782 0 1 1 0 1.564.782.782 0 0 1 0-1.564m4.191-1.173a.783.783 0 1 1 0 1.566.783.783 0 0 1 0-1.566m0 2.346a.782.782 0 1 1 0 1.565.782.782 0 0 1 0-1.565" fill="#fff"/><path d="M527.306 259.685l2.402-1.387-1.162-.671h-.032l-2.386 1.377-2.386-1.377h-.033l-1.162.671 2.402 1.387-3.623 2.08v1.466h1.236v-.786l2.971-1.737v1.276h1.19v-1.276l2.965 1.737v.786h1.241v-1.466zm2.382 6.921l-2.966 1.737v-1.262h-1.189v1.262l-2.97-1.737v-.786h-1.237v1.466l3.626 2.082-2.405 1.389 1.162.671h.033l2.385-1.378 2.387 1.378h.032l1.162-.671-2.405-1.389 3.626-2.082v-1.466h-1.241zM636.128 188h116v56h-116z" fill="#fff"/><path clip-path="url(#c)" d="M636.128 188h116v56h-116z" stroke="#dfdfdf" stroke-linecap="round" stroke-linejoin="round" stroke-width="2"/><text fill="#212121" transform="translate(687.128 209)"><tspan font-family="Roboto" font-size="12" font-weight="400" x="0" y="11">BigQuery</tspan></text><path d="M679.794 214.714l-5.754-10.006c-.461-.8-1.297-1.286-2.158-1.286h-11.508c-.922 0-1.727.54-2.158 1.285l-5.754 9.986a2.51 2.51 0 0 0 0 2.502l5.754 10.052c.46.798 1.297 1.331 2.157 1.331h11.508c.923 0 1.728-.581 2.158-1.326l5.754-10.006a2.566 2.566 0 0 0 0-2.532" fill="#4285f4"/><path d="M674.04 227.252l3.835-6.67-8.11-8.11-3.638-.973-3.266 1.214L661.6 216l1.014 3.66 8.919 8.918h.348c.923 0 1.728-.581 2.159-1.326" fill="#000" fill-opacity=".07"/><path d="M666.128 219.85a3.85 3.85 0 1 1 0-7.7 3.85 3.85 0 0 1 0 7.7m0-8.924a5.074 5.074 0 1 0 0 10.147 5.074 5.074 0 0 0 0-10.147" fill="#fff"/><path d="M663.72 215.804v1.577c.232.401.562.737.958.98v-2.557zm1.9-1.329v4.246c.162.03.329.048.5.048.157 0 .308-.017.458-.042v-4.252zm1.988 1.985v1.872a2.8 2.8 0 0 0 .959-1.028v-.844zm2.172 2.665l-.527.527a.237.237 0 0 0 0 .335l1.994 1.994a.238.238 0 0 0 .336 0l.526-.526a.238.238 0 0 0 0-.335l-1.994-1.995a.238.238 0 0 0-.336 0M636.128 284h116v56h-116z" fill="#fff"/><path clip-path="url(#d)" d="M636.128 284h116v56h-116z" stroke="#dfdfdf" stroke-linecap="round" stroke-linejoin="round" stroke-width="2"/><text fill="#212121" transform="translate(687.128 291)"><tspan font-family="Roboto" font-size="12" font-weight="400" x="0" y="11">Cloud </tspan><tspan font-family="Roboto" font-size="12" font-weight="400" x="0" y="25">Machine </tspan><tspan font-family="Roboto" font-size="12" font-weight="400" x="0" y="39">Learning</tspan></text><path d="M679.794 310.714l-5.754-10.006c-.461-.8-1.297-1.286-2.158-1.286h-11.508c-.922 0-1.727.54-2.158 1.285l-5.754 9.986a2.51 2.51 0 0 0 0 2.502l5.754 10.052c.46.798 1.297 1.331 2.157 1.331h11.508c.923 0 1.728-.581 2.158-1.326l5.754-10.006a2.566 2.566 0 0 0 0-2.532" fill="#4285f4"/><path d="M669.668 305.656l-2.656 1.322-1.322-1.322-4.624 2.625 1.015 1.016-2.538 3.797 1.545 1.544 1.5 3.706 6.234 6.234h3.06c.922 0 1.727-.581 2.158-1.326l4.827-8.396z" fill="#000" fill-opacity=".07"/><path d="M669.612 314.188l.64-1.094h2.46l.635-1.094-1.65-2.844h-2.567l-.742-1.312h-.729v-.875h1.24l.742 1.312h1.549l-1.522-2.625h-3.103v3.719h1.317l.51.875h-1.827V312h1.662l.758-1.313h2.04l.505.875h-2.04l-.758 1.313h-2.167v3.281h2.733l-.505.875h-2.228v1.313h3.103l2.537-4.375h-1.451l-.64 1.094h-2.455v-.875zm-6.968 0l-.64-1.094h-2.46l-.635-1.094 1.65-2.844h2.566l.743-1.312h.729v-.875h-1.24l-.742 1.312h-1.55l1.523-2.625h3.102v3.719h-1.317l-.51.875h1.827V312h-1.661l-.758-1.313h-2.04l-.505.875h2.04l.758 1.313h2.166v3.281h-2.733l.506.875h2.227v1.313h-3.102l-2.537-4.375h1.451l.64 1.094h2.455v-.875zM806.29 140.5h107.835v56H806.29z" fill="#fff"/><path clip-path="url(#e)" d="M806.29 140.5h107.835v56H806.29z" stroke="#dfdfdf" stroke-linecap="round" stroke-linejoin="round" stroke-width="2"/><text fill="#212121" transform="translate(857.29 154.5)"><tspan font-family="Roboto" font-size="12" font-weight="400" x="0" y="11">Cloud</tspan> <tspan font-family="Roboto" font-size="12" font-weight="400" x="0" y="25">Datalab</tspan></text><path d="M849.956 167.214l-5.754-10.006c-.462-.8-1.298-1.286-2.158-1.286h-11.508c-.922 0-1.728.54-2.158 1.285l-5.754 9.986a2.51 2.51 0 0 0-.001 2.502l5.754 10.052c.461.798 1.298 1.331 2.158 1.331h11.508c.922 0 1.727-.581 2.158-1.326l5.754-10.006a2.566 2.566 0 0 0 0-2.532" fill="#4285f4"/><path d="M836.42 160.13l-.755.766 1.893 1.892-.874.207 1.882 2.073-.67.155-2.259-2.261-.772.743 1.611 1.612-1.455-.018-.963.564.954.954-3.134 5.443.906 2.425 6.393 6.393h2.866c.922 0 1.728-.581 2.158-1.326l4.323-7.517z" fill="#000" fill-opacity=".07"/><path d="M835.226 162.769a.537.537 0 1 1-.001 1.074.537.537 0 0 1 0-1.074m2.025-1.151a.805.805 0 1 1 0 1.611.805.805 0 0 1 0-1.611m-1.22-1.654a.536.536 0 1 1 .001 1.072.536.536 0 0 1 0-1.072m2.259 12.473l-.379-.656h2.594l-2.58-4.47h-.09l2.22 3.814h-5.775l-.692 1.198a.269.269 0 0 0 0 .268l.842 1.46h5.546l.92-1.594-.012-.02z" fill="#fff"/><path d="M840.084 172.54l-.73 1.262a.267.267 0 0 1-.232.134h-5.665a.267.267 0 0 1-.233-.134l-.73-1.263a.269.269 0 0 1 0-.268l2.838-4.914a.536.536 0 0 0 .072-.269v-1.213h1.77v1.213c0 .094.026.186.072.269l2.838 4.914a.269.269 0 0 1 0 .268m.914-.38l-2.928-5.072a.269.269 0 0 1-.036-.135v-1.077h.427c.06 0 .109-.048.109-.109v-.618a.11.11 0 0 0-.11-.11h-4.342a.11.11 0 0 0-.109.11v.618c0 .06.05.109.11.109h.426v1.077a.269.269 0 0 1-.036.135l-2.929 5.072a.537.537 0 0 0 0 .537l1.07 1.854a.537.537 0 0 0 .465.268h6.349a.536.536 0 0 0 .464-.268l1.07-1.854a.535.535 0 0 0 0-.537" fill="#fff"/><path d="M836.19 168.926h2.619l-.394-.621h-2.584zm.537.886l.375.65h2.672l-.386-.65zM636.128 92h115.1v56h-115.1z" fill="#fff"/><path clip-path="url(#f)" d="M636.128 92h115.1v56h-115.1z" stroke="#dfdfdf" stroke-linecap="round" stroke-linejoin="round" stroke-width="2"/><text fill="#212121" transform="translate(687.128 106)"><tspan font-family="Roboto" font-size="12" font-weight="400" x="0" y="11">Cloud</tspan> <tspan font-family="Roboto" font-size="12" font-weight="400" x="0" y="25">Bigtable</tspan></text><path d="M679.794 118.714l-5.754-10.006c-.461-.8-1.297-1.286-2.158-1.286h-11.508c-.922 0-1.727.54-2.158 1.285l-5.754 9.986a2.51 2.51 0 0 0 0 2.502l5.754 10.052c.46.798 1.297 1.331 2.157 1.331h11.508c.923 0 1.728-.581 2.158-1.326l5.754-10.006a2.566 2.566 0 0 0 0-2.532" fill="#4285f4"/><path d="M672.016 114.915l-.273 2.158-1.47-1.469-5.118-2.096 2.86 2.86-3.464-1.636-5.78 2.716 1.569 1.568-.106 6.082 7.48 7.48h4.167c.923 0 1.728-.581 2.159-1.326l5.225-9.088z" fill="#000" fill-opacity=".07"/><path d="M670.435 115.988l.004 4.523a.273.273 0 0 1-.137.236l-.733.424-.003-4.682a.548.548 0 0 0-.273-.472l-3.651-2.108a1.98 1.98 0 0 1-.982-1.566l5.501 3.173c.17.097.273.277.274.472" fill="#fff"/><path d="M671.756 121.724l-3.915 2.264a.272.272 0 0 1-.272.001l-.735-.424 4.053-2.343a.545.545 0 0 0 .272-.472v-4.216c0-.655.329-1.269.866-1.633l.003 6.35a.548.548 0 0 1-.272.473" fill="#fff"/><path d="M667.45 125.736l-3.92-2.257a.275.275 0 0 1-.137-.237v-.848l4.056 2.339a.547.547 0 0 0 .545 0l3.651-2.108a1.975 1.975 0 0 1 1.847-.067l-5.498 3.178a.547.547 0 0 1-.545 0" fill="#fff"/><path d="M661.82 124.012l-.004-4.523c0-.097.053-.188.137-.236l.734-.424.003 4.682c0 .194.104.374.272.472l3.652 2.108c.567.327.933.918.98 1.566l-5.5-3.173a.545.545 0 0 1-.273-.472" fill="#fff"/><path d="M660.5 118.276l3.914-2.264a.272.272 0 0 1 .273-.001l.734.424-4.053 2.343a.545.545 0 0 0-.272.472v4.216c0 .656-.329 1.268-.865 1.634l-.004-6.352c0-.194.104-.374.273-.472" fill="#fff"/><path d="M664.806 114.264l3.92 2.258a.271.271 0 0 1 .136.236v.848l-4.056-2.338a.544.544 0 0 0-.545 0l-3.651 2.108a1.975 1.975 0 0 1-1.847.066l5.498-3.177a.544.544 0 0 1 .545-.001m1.32 6.896a.301.301 0 0 1-.15-.04l-2.585-1.492v.651l2.735 1.58 2.735-1.58v-.65l-2.585 1.491a.3.3 0 0 1-.15.04" fill="#fff"/><path d="M666.276 122.465a.299.299 0 0 1-.3 0l-2.585-1.493v.482a.29.29 0 0 0 .145.25l2.445 1.412c.09.051.2.051.29 0l2.445-1.412a.29.29 0 0 0 .145-.25v-.482zm-.15-1.951l2.735-1.579v-.306a.288.288 0 0 0-.145-.25l-2.445-1.412a.288.288 0 0 0-.29 0l-2.445 1.412a.288.288 0 0 0-.145.25v.306zM806.29 233.5h107.035v56H806.29z" fill="#fff"/><path clip-path="url(#g)" d="M806.29 233.5h107.035v56H806.29z" stroke="#dfdfdf" stroke-linecap="round" stroke-linejoin="round" stroke-width="2"/><text fill="#212121" transform="translate(857.29 247.5)"><tspan font-family="Roboto" font-size="12" font-weight="400" x="0" y="11">Data </tspan><tspan font-family="Roboto" font-size="12" font-weight="400" x="0" y="25">Studio</tspan></text><path d="M846.437 248.632c1.873.019 3.393 1.542 3.393 3.42s-1.52 3.407-3.393 3.426zm0 0v6.846h-.034c-1.888 0-3.42-1.539-3.42-3.427s1.532-3.42 3.42-3.42z" fill="#1a73e8"/><path d="M836.104 248.632H846.4a3.424 3.424 0 0 0 .001 6.846h-10.172c-1.651 0-3.163-1.106-3.494-2.708a3.437 3.437 0 0 1 3.37-4.138z" fill="#669df6"/><path d="M846.437 267.515c1.873.018 3.393 1.542 3.393 3.419s-1.52 3.408-3.393 3.427zm0 0v6.846h-.034a3.426 3.426 0 0 1-3.42-3.427 3.42 3.42 0 0 1 3.42-3.42z" fill="#1a73e8"/><path d="M836.104 267.515H846.4a3.42 3.42 0 0 0-3.419 3.419 3.426 3.426 0 0 0 3.42 3.427h-10.172c-1.651 0-3.163-1.106-3.494-2.709a3.437 3.437 0 0 1 3.37-4.137z" fill="#669df6"/><path d="M836.732 258.036c1.874.018 3.393 1.542 3.393 3.419s-1.52 3.408-3.393 3.427zm0 0v6.846h-.033a3.426 3.426 0 0 1-3.42-3.427 3.42 3.42 0 0 1 3.42-3.42z" fill="#1a73e8"/><path d="M826.4 258.036h10.295a3.42 3.42 0 0 0-3.42 3.419 3.426 3.426 0 0 0 3.42 3.427h-10.171c-1.652 0-3.164-1.106-3.495-2.709a3.437 3.437 0 0 1 3.37-4.137zm20.375 9.422h-10.238c-2.48 0-3.86 1.734-3.86 3.577 0 1.704 1.174 3.578 3.86 3.578h10.238z" fill="#669df6"/><ellipse cx="846.775" cy="271.032" fill="#1a73e8" rx="3.525" ry="3.577"/><path d="M836.198 257.923H825.96c-2.478 0-3.859 1.734-3.859 3.577 0 1.704 1.174 3.577 3.86 3.577h10.238z" fill="#669df6"/><ellipse cx="836.198" cy="261.496" fill="#1a73e8" rx="3.525" ry="3.577"/><path d="M846.775 248.387h-10.238c-2.48 0-3.86 1.734-3.86 3.578 0 1.704 1.174 3.577 3.86 3.577h10.238z" fill="#669df6"/><ellipse cx="846.775" cy="251.965" fill="#1a73e8" rx="3.525" ry="3.577"/><text fill="#616161" transform="translate(422.5 43.2)"><tspan font-family="Roboto" font-size="10" font-weight="400" x="0" y="9">Update device </tspan><tspan font-family="Roboto" font-size="10" font-weight="400" x="0" y="21">config</tspan></text><text fill="#616161" transform="translate(422.8 270.4)"><tspan font-family="Roboto" font-size="10" font-weight="400" x="0" y="9">Update device </tspan><tspan font-family="Roboto" font-size="10" font-weight="400" x="0" y="21">config</tspan></text><text fill="#616161" transform="translate(579.707 323)"><tspan font-family="Roboto" font-size="10" font-weight="400" x="0" y="9">Serving</tspan></text><text fill="#616161" transform="translate(650.207 256)"><tspan font-family="Roboto" font-size="10" font-weight="400" x="0" y="9">Training</tspan></text><path d="M934.125 188h94.936v56h-94.936z" fill="#fff"/><path clip-path="url(#h)" d="M934.125 188h94.936v56h-94.936z" stroke="#dfdfdf" stroke-linecap="round" stroke-linejoin="round" stroke-width="2"/><text fill="#212121" transform="translate(975.125 209)"><tspan font-family="Roboto" font-size="12" font-weight="400" x="0" y="11">Insights</tspan></text><path d="M946.751 220.795l5.637-8.61"/><path d="M946.751 220.795l5.637-8.61" stroke="#666" stroke-linejoin="round" stroke-width=".5"/><path d="M952.335 212.3l7.88 5.711"/><path d="M952.335 212.3l7.88 5.711" stroke="#666" stroke-linejoin="round" stroke-width=".5"/><path d="M960.107 218.124l4.45-6.824"/><path d="M960.107 218.124l4.45-6.824" stroke="#666" stroke-linejoin="round" stroke-width=".5"/><path d="M945.125 220.701a1.926 1.926 0 1 1 3.852 0 1.926 1.926 0 0 1-3.852 0zm5.343-7.569a1.926 1.926 0 1 1 3.851 0 1.926 1.926 0 0 1-3.851 0zm7.532 4.895a1.926 1.926 0 1 1 3.851 0 1.926 1.926 0 0 1-3.852 0zm4.452-6.728a1.926 1.926 0 1 1 3.851 0 1.926 1.926 0 0 1-3.851 0z" fill="#616161"/><text fill="#666" transform="translate(0 57.891)"><tspan font-family="Roboto" font-size="12" font-weight="400" x="0" y="11">Sensors</tspan></text><path d="M108.266 76.1h141v184.4h-141z" fill="#fff"/><path clip-path="url(#i)" d="M108.266 76.1h141v184.4h-141z" stroke="#dfdfdf" stroke-linecap="round" stroke-linejoin="round" stroke-width="2"/><path d="M124.266 131.225h109v.975h-109z" fill="#dfdfdf"/><text fill="#757575" transform="translate(124.266 139.225)"><tspan font-family="Roboto" font-size="10" font-weight="400" x="0" y="9">Real-time analytics &amp; ML</tspan></text><text fill="#212121" transform="translate(161.266 90.1)"><tspan font-family="Roboto" font-size="12" font-weight="400" x="0" y="11">Cloud </tspan><tspan font-family="Roboto" font-size="12" font-weight="400" x="0" y="25">IoT Edge</tspan></text><path d="M125.086 159.045h109v.975h-109z" fill="#dfdfdf"/><path d="M7.53 105.23l2.901 1.813 2.829-1.813-2.829-1.74zm3.772-2.248l2.828 1.74.145-.072h.073l-.363-3.337-.072.073h-.073zm2.828 2.828l-2.828 1.741 3.409 2.103h.072l.073.073-.363-3.772-.145-.072h-.073z" fill="#616161"/><path d="M27.476 106.173c-.072-.073-.072-.073 0 0-.072-.073-.145-.073-.145-.073l-7.978 5.295h-4.28l-.072-.507-.073-.073-.145-.073-4.424-2.683-4.207 2.538-.073.073-.072.072-.073.653H2.163c-.073 0-.073.073-.073.073v7.833c0 .073.073.073.073.073H4.7v5.44s0 .072.073.072h.072l2.539-1.668 2.248 1.596h.145l.073-.073v-5.005h7.76v5.005s0 .073.073.073h.073L20.441 123l2.538 1.814h.073l.072-.073v-5.295H25.3c.073 0 .073-.072.073-.072v-3.917l-2.539-3.264 5.005-4.352s.072-.072 0-.072zm-12.33 10.735v-2.757h2.756v2.757zM9.85 114.15h2.756v2.757H9.851zm-2.539 0v2.757H4.556v-2.757zm-.434-9.573l2.684-1.595-2.321-1.451h-.073l-.072-.073-.435 3.264.145-.072zm-.58 4.933l3.264-1.959-2.829-1.668-.072-.073h-.073l-.435 3.772h.072zm1.015-8.922l3.047 1.886 3.336-2.031.073-.073.072-.072-.072-.725c0-.073-.073-.073-.073-.073H7.312c-.072 0-.072 0-.072.073l-.073.87.073.072zm18.786 26.184c-1.45 1.233-3.336 1.16-5.657-.072a.472.472 0 0 0-.653.145c-.58.652-1.523 1.015-2.611 1.088-1.233 0-2.466-.363-3.192-1.088a.558.558 0 0 0-.725-.073c-1.958 1.45-4.497 1.16-5.658.073-.217-.218-.507-.218-.725 0-2.901 2.466-5.657.145-5.73 0a.517.517 0 0 0-.798.072.517.517 0 0 0 .073.798s3.264 2.901 6.818.29c1.45 1.088 4.062 1.378 6.31 0 .87.725 2.176 1.088 3.482 1.088h.145c1.233 0 2.248-.435 3.046-1.16 2.539 1.233 4.715 1.16 6.455-.218.218-.218.29-.508.073-.798-.073-.29-.435-.29-.653-.145zm.362 24.878l-3.553-4.569h-3.482V143.6l1.16.87h.073l.073-.073v-2.537l-6.673-5.658h-.145L7.24 141.86v2.466s0 .072.072.072h.073l1.16-.87v3.482H5.064l-3.554 4.57v.072l.072.072h2.176v9.792c0 .073.073.073.073.073h7.833c.073 0 .073-.073.073-.073V156.8h4.497v4.715c0 .073.072.073.072.073h7.834c.072 0 .072-.073.072-.073v-9.792h2.176s.073 0 .073-.072c0-.073.072 0 0 0zm-18.06.29v2.467H5.934v-2.466zm-2.466 4.788H8.4v2.466H5.934zm4.497-2.321v-2.466h2.466v2.466zm.58-10.155a2.941 2.941 0 0 1 2.974-2.973c1.669 0 2.974 1.305 2.974 2.973s-1.305 2.974-2.974 2.974a2.941 2.941 0 0 1-2.974-2.974zm4.062 7.689h2.466v2.466h-2.466zm4.425 2.466v-2.466h2.466v2.466zm2.538 2.32v2.467H19.57v-2.466z" fill="#616161"/><path d="M16.161 144.252c0-.217-.145-.362-.362-.362h-1.451v-1.378c0-.218-.145-.363-.363-.363-.217 0-.362.145-.362.363v1.74c0 .218.145.363.362.363H15.8c.217 0 .362-.145.362-.363zm9.429 38.733c-.362-.436-.942-.653-1.305-.653h-3.192v-6.31c0-.29-.29-.58-.58-.58s-.58.29-.58.58v6.31h-5.875l-2.321-6.746c0-.072-.073-.072-.073-.072H4.266c-.073 0-.073.072-.073.072v9.43c-2.103.87-3.554 2.973-3.554 5.367 0 3.191 2.612 5.875 5.875 5.875a5.85 5.85 0 0 0 5.876-5.875v-.363h7.18c-1.16.435-1.958 1.523-1.958 2.756a2.941 2.941 0 0 0 2.974 2.974 2.941 2.941 0 0 0 2.974-2.974c0-1.305-.798-2.32-1.959-2.756h2.901c.073 0 .073 0 .073-.072 0-.073 1.015-4.86 1.306-5.875a2.05 2.05 0 0 0-.29-1.088zm-5.077 11.677c-1.015 0-1.886-.87-1.886-1.886 0-1.015.87-1.885 1.886-1.885s1.886.87 1.886 1.885a1.873 1.873 0 0 1-1.886 1.886zm-11.677-4.28a2.415 2.415 0 0 1-2.394 2.394 2.415 2.415 0 0 1-2.394-2.393c0-.145 0-.363.073-.508 0-.072.072-.217.072-.29 0-.073.073-.145.073-.218.363-.797 1.233-1.378 2.176-1.378 1.088 0 2.03.798 2.321 1.814v.145c.073.217.073.29.073.435zm-2.757-7.905v-4.497h4.352l1.306 4.497zm19.294 32.784h-5.077v-6.818c0-.072-.073-.072-.073-.072H7.748c-.073 0-.073.072-.073.072v6.818H2.598c-.073 0-.073.073-.073.073v16.682c0 .073.073.073.073.073h7.688c.073 0 .073-.073.073-.073v-4.932h7.253v4.932c0 .073.072.073.072.073h7.689c.072 0 .072-.073.072-.073v-16.682c.073 0 0-.073-.072-.073zM5.28 224.618v-2.611h2.612v2.611zm2.612 2.756v2.611H5.28v-2.61zm2.103-2.756v-2.611h2.611v2.611zm3.264-10.735h2.104v-2.756h2.249v8.124h-2.249v-2.612h-2.756v2.757H10.36v-8.124h2.248v2.756h.653zm4.715 8.124v2.611h-2.612v-2.611zm4.714 0v2.611h-2.611v-2.611zm0 5.367v2.611h-2.611v-2.61zm-4.713 40.691s-1.306-.363-1.306-1.233v-12.766c-.798 0-1.378.073-1.523.073-.073 0-.145.145-.29.29a26.762 26.762 0 0 0-1.959 2.248c-.072.073-.145.218-.29.29-.072.073-.145.218-.29.29v9.502c0 .87-1.306 1.233-1.306 1.233-.145.073-.217.145-.217.29s.145.218.29.218h6.89c.146 0 .218-.073.29-.218.073-.145-.144-.217-.29-.217z" fill="#616161"/><path d="M24.212 252.615c-.217-.072-.798-.145-1.523-.217-2.176-.29-5.73-.725-6.745-1.233-1.016-.508-3.264-3.917-5.223-7.108-.435-.653-.725-1.16-.943-1.451-.29-.435-.58-.58-.725-.508-.145.073-.217.435.145 1.233.653 1.524 2.901 8.342 2.974 8.777.073.507-1.015 2.61-3.191 6.455-.508.943-.943 1.74-1.088 2.031-.145.29-.073.508.145.653.29.145.652.072.725-.073 0-.072 1.886-2.393 3.554-4.424.073-.145.218-.218.29-.29l.29-.29c.58-.653 1.088-1.234 1.523-1.669l.29-.29.29-.29c.073-.073.073-.072.146-.072.29-.073 2.32-.146 5.295-.218 1.813 0 3.554-.073 3.916-.145.363-.073.508-.29.508-.435-.072-.218-.29-.363-.653-.436z" fill="#616161"/><path d="M636.13 314.22l-23.924-.142h-56.078l.5.5V302.4a.5.5 0 0 0-1 0v12.178a.5.5 0 0 0 .5.5h56.075l23.922.142a.5.5 0 0 0 .006-1zm-80.502-19.82v8h1v-8zm-3.147 4.354l4-4h-.707l4 4 .707-.708-4-4-.353-.353-.354.353-4 4zM693.628 244v30.1a.5.5 0 1 0 1 0V244a.5.5 0 0 0-1 0zm1 38.1v-8h-1v8zm3.146-4.354l-4 4h.707l-4-4-.707.708 4 4 .354.353.353-.353 4-4z" fill="red"/><path d="M693.278 148.003l.125 20 .063 10.1a.5.5 0 0 0 1-.006l-.063-10.1-.125-20a.5.5 0 1 0-1 .006zm1.238 38.094l-.05-8-1 .006.05 8zm3.119-4.373l-3.975 4.025.707-.005-4.025-3.975-.703.712 4.025 3.975.356.351.351-.356 3.975-4.024zM616.128 265h8.649a.5.5 0 0 0 .5-.5V120l-.5.5h1.45a.5.5 0 0 0 0-1h-1.45a.5.5 0 0 0-.5.5v144.5l.5-.5h-8.65a.5.5 0 0 0 0 1zm18.1-145.5h-8v1h8zm-4.354-3.146l4 4v-.708l-4 4 .707.708 4-4 .354-.354-.354-.354-4-4z" fill="#616161"/><path d="M624.777 216.698h1.45a.5.5 0 0 0 0-1h-1.45a.5.5 0 0 0 0 1zm9.45-1h-8v1h8zm-4.353-3.147l4 4v-.707l-4 4 .707.707 4-4 .354-.353-.354-.354-4-4zM555.628 196.5v30.1a.5.5 0 0 0 1 0v-30.1a.5.5 0 0 0-1 0zm1 38.1v-8h-1v8zm3.146-4.354l-4 4h.707l-4-4-.707.708 4 4 .354.353.353-.353 4-4zm-3.146-89.746v-30.1a.5.5 0 0 0-1 0v30.1a.5.5 0 0 0 1 0zm-1-38.1v8h1v-8zm-3.147 4.354l4-4h-.707l4 4 .707-.708-4-4-.353-.353-.354.353-4 4zM796.39 261h-17.876l.5.5v-93l-.5.5h17.875a.5.5 0 0 0 0-1h-17.875a.5.5 0 0 0-.5.5v93a.5.5 0 0 0 .5.5h17.875a.5.5 0 0 0 0-1zm8-93h-8v1h8zm-4.354-3.146l4 4v-.708l-4 4 .707.708 4-4 .354-.354-.354-.354-4-4zM804.39 261h-8v1h8zm-4.354-3.146l4 4v-.708l-4 4 .707.708 4-4 .354-.354-.354-.354-4-4z" fill="#616161"/><path d="M752.13 215.918l19.386-.084h6.998a.5.5 0 1 0 0-1h-7l-19.388.084a.5.5 0 0 0 .004 1z" fill="#616161"/><path d="M151.93 103.018l-5.753-10.005a2.529 2.529 0 0 0-2.157-1.287h-11.508a2.524 2.524 0 0 0-2.159 1.287l-5.753 9.978a2.502 2.502 0 0 0 0 2.5l5.753 10.063a2.577 2.577 0 0 0 2.157 1.332h11.508a2.568 2.568 0 0 0 2.159-1.326l5.753-10.007a2.56 2.56 0 0 0 0-2.535z" fill="#4285f4"/><path d="M137.659 100.535l-1.183-1.181-3.846 1.531 1.466 1.468-1.466 1.53 1.698 1.696-1.698 1.35 1.348 1.334-1.348 1.048 7.57 7.57h3.818a2.568 2.568 0 0 0 2.159-1.325l4.593-8.01-8.183-8.192z" fill="#000" fill-opacity=".07"/><path d="M135.485 107.782h-2.855v1.529h3.846zm.002-6.902l.989-1.526h-3.846v1.527z" fill="#fff"/><path d="M142.587 106.273h-2.804l-.976 1.505h-1.312l-.543-.85h1.313l.976-1.504h3.346v-.621h2.113v-.937h-2.113v-.614h-3.344l-.978-1.505h-1.312l.544-.84h1.313l.975 1.505h4.915v-.939h-2.113v-2.12h-5.081l-1.549 2.394h-3.327v2.13h1.947l.794-1.227h1l-1.094 1.682 1.094 1.68h-1l-.794-1.225h-1.947v2.142h3.325l1.553 2.393h5.08V107.2h2.112v-.927zm-5.923-1.94a.947.947 0 1 1 1.894-.005.947.947 0 0 1-1.894.004zM121 204.85h115.1V244H121z" fill="#fff"/><text fill="#212121" transform="translate(142 217.425)"><tspan font-family="Roboto" font-size="12" font-weight="400" x=".302" y="11">Edge IoT Core</tspan></text><path d="M205.556 181.955v3.185l5.516 3.185v-3.185zm-11.033 3.185v3.185l2.758 1.593v-3.185zm8.275 1.593l-2.758 1.592v9.555l2.758 1.592v-6.37l2.758 1.593v-3.185l-2.758-1.592z" fill="#e55b2d"/><path d="M205.556 181.955l-8.275 4.778v3.185l5.517-3.185v3.185l2.758-1.593zm8.274 1.593l-2.758 1.592v3.185l2.758-1.592zm-5.516 6.37l-2.758 1.592v3.185l2.758-1.592zm-2.758 4.777l-2.758-1.592v6.37l2.758-1.593z" fill="#ed8e24"/><path d="M205.556 178.77l-11.033 6.37 2.758 1.593 8.275-4.778 5.516 3.185 2.758-1.592zm0 9.555l-2.758 1.593 2.758 1.592 2.758-1.592z" fill="#f8bf3c"/><text fill="#212121" transform="translate(143.27 182.122)"><tspan font-family="Roboto" font-size="12" font-weight="400" x="0" y="11">Edge ML</tspan></text><path d="M496.128 264h-10l-36.398.145H420.9l.5.5v-38.268a.5.5 0 1 0-1 0v38.268a.5.5 0 0 0 .5.5h28.832L486.13 265h9.998a.5.5 0 0 0 0-1zM420.4 218.377v8h1v-8zm-3.146 4.353l4-4h-.708l4 4 .708-.707-4-4-.354-.353-.354.353-4 4zM496.57 73.174L449.634 73H420.9a.5.5 0 0 0-.5.5v36.723a.5.5 0 0 0 1 0V73.5l-.5.5h28.732l46.935.174a.5.5 0 0 0 .003-1zm-75.17 45.05v-8h-1v8zm3.146-4.354l-4 4h.708l-4-4-.708.707 4 4 .354.353.354-.353 4-4z" fill="red"/><path d="M367.8 120.123H474v96.354H367.8z" fill="#fff"/><path clip-path="url(#j)" d="M367.8 120.123H474v96.354H367.8z" stroke="#dfdfdf" stroke-linecap="round" stroke-linejoin="round" stroke-width="2"/><path d="M444.641 158.307l-10.11-17.582c-.811-1.404-2.28-2.26-3.792-2.26h-20.221c-1.62 0-3.035.95-3.792 2.258l-10.11 17.547a4.41 4.41 0 0 0-.002 4.396l10.11 17.663c.811 1.403 2.28 2.34 3.792 2.34h20.222c1.62 0 3.035-1.022 3.792-2.33l10.11-17.583a4.51 4.51 0 0 0 .001-4.45" fill="#4285f4"/><path d="M430.182 153.885l-2.686.124-2.753-2.753-13.06 4.897-.617 3.692 3.786 3.785-1.104 1.702-.613 1.425.099 1.254 14.658 14.657h2.846c1.62 0 3.035-1.02 3.792-2.33l8.07-14.035z" fill="#000" fill-opacity=".07"/><path d="M420.597 170.358a1.104 1.104 0 1 1 0-2.208 1.104 1.104 0 0 1 0 2.208zm.593-3.29v-6.022h-1.155v6.022a2.258 2.258 0 1 0 1.155 0zm5.202.473a1.104 1.104 0 1 1 1.104-1.104 1.104 1.104 0 0 1-1.104 1.1zm.577-3.29v-3.194h-1.154v3.194a2.259 2.259 0 1 0 1.154 0zm-12.117 3.29a1.104 1.104 0 1 1 1.104-1.104 1.104 1.104 0 0 1-1.104 1.1zm.577-3.255v-3.233h-1.154v3.198a2.258 2.258 0 1 0 2.836 2.182 2.193 2.193 0 0 0-1.682-2.147z" fill="#fff"/><path d="M421.19 156.205v4.845h-1.155v-4.845a1.247 1.247 0 1 1 1.155 0zm6.052-3.529c-.454 0-.904.075-1.335.22a5.715 5.715 0 0 0-10.362.073 4.187 4.187 0 1 0-1.54 8.08h.266v-3.093a1.246 1.246 0 1 1 1.154 0v3.097h10.39v-3.078a1.247 1.247 0 1 1 1.154 0v3.078h.273a4.187 4.187 0 1 0 0-8.373z" fill="#fff"/><text fill="#212121" transform="translate(380.367 191.47)"><tspan font-family="Roboto" font-size="12" font-weight="400" x="0" y="11">Cloud IoT Core</tspan></text><path d="M496.128 44.5h120v56h-120z" fill="#fff"/><path clip-path="url(#k)" d="M496.128 44.5h120v56h-120z" stroke="#dfdfdf" stroke-linecap="round" stroke-linejoin="round" stroke-width="2"/><text fill="#212121" transform="translate(547.128 58.5)"><tspan font-family="Roboto" font-size="12" font-weight="400" x="0" y="11">Cloud</tspan> <tspan font-family="Roboto" font-size="12" font-weight="400" x="0" y="25">Functions</tspan></text><path d="M539.794 71.214l-5.754-10.006c-.461-.8-1.297-1.286-2.158-1.286h-11.508c-.922 0-1.727.54-2.158 1.285l-5.754 9.986a2.51 2.51 0 0 0 0 2.502l5.754 10.052c.46.798 1.297 1.331 2.157 1.331h11.508c.923 0 1.728-.581 2.158-1.326l5.754-10.006a2.566 2.566 0 0 0 .001-2.532" fill="#4285f4"/><path d="M532.703 69.28l-.82.818.18 5.16-.755 1.096-.438-.438h.402V74.12l-1.932-1.93-1.388.693.04.155-4.918-4.917-2.367 1.194-.288 2.419.819 4.427 1.186 1.162-.508.824 6.932 6.931h3.033c.923 0 1.728-.581 2.159-1.326l4.796-8.34z" fill="#000" fill-opacity=".07"/><path d="M521.882 78.092l1.158-1.158-1.736-1.736v-5.396l1.736-1.736-1.158-1.158-2.317 2.316v6.552z" fill="#fff"/><circle cx="523.673" cy="72.5" fill="#fff" r=".821"/><circle cx="526.128" cy="72.5" fill="#fff" r=".821"/><circle cx="528.583" cy="72.5" fill="#fff" r=".821"/><path d="M530.363 66.908l-1.158 1.158 1.735 1.736v5.397l-1.735 1.735 1.158 1.158 2.316-2.316v-6.552z" fill="#fff"/><g fill="#616161"><path d="M474 168.8h12.945a.5.5 0 0 0 0-1H474a.5.5 0 0 0 0 1zm20.945-1h-8v1h8zm-4.354-3.146l4 4v-.708l-4 4 .707.708 4-4 .354-.354-.354-.354-4-4z"/><text transform="translate(283.063 183.923)"><tspan font-family="Roboto" font-size="10" font-weight="400" x="14.641" y="9">Data</tspan></text><text transform="translate(277.463 117.704)"><tspan font-family="Roboto" font-size="10" font-weight="400" x="0" y="9">Update config </tspan><tspan font-family="Roboto" font-size="10" font-weight="400" x="0" y="21">&amp; deploy ML </tspan><tspan font-family="Roboto" font-size="10" font-weight="400" x="0" y="33">model</tspan></text><path d="M336 177.293h-.7c-.3 0-.5-.2-.5-.5s.2-.5.5-.5h.7c.3 0 .5.2.5.5s-.2.5-.5.5zm-4.7 0h-1c-.3 0-.5-.2-.5-.5s.2-.5.5-.5h1c.3 0 .5.2.5.5s-.2.5-.5.5zm-5 0h-1c-.3 0-.5-.2-.5-.5s.2-.5.5-.5h1c.3 0 .5.2.5.5s-.2.5-.5.5zm-5 0h-1c-.3 0-.5-.2-.5-.5s.2-.5.5-.5h1c.3 0 .5.2.5.5s-.2.5-.5.5zm-5 0h-1c-.3 0-.5-.2-.5-.5s.2-.5.5-.5h1c.3 0 .5.2.5.5s-.2.5-.5.5zm-5 0h-1c-.3 0-.5-.2-.5-.5s.2-.5.5-.5h1c.3 0 .5.2.5.5s-.2.5-.5.5zm-5 0h-1c-.3 0-.5-.2-.5-.5s.2-.5.5-.5h1c.3 0 .5.2.5.5s-.2.5-.5.5zm-5 0h-1c-.3 0-.5-.2-.5-.5s.2-.5.5-.5h1c.3 0 .5.2.5.5s-.2.5-.5.5zm-5 0h-1c-.3 0-.5-.2-.5-.5s.2-.5.5-.5h1c.3 0 .5.2.5.5s-.2.5-.5.5zm-5 0h-1c-.3 0-.5-.2-.5-.5s.2-.5.5-.5h1c.3 0 .5.2.5.5s-.2.5-.5.5zm-5 0h-1c-.3 0-.5-.2-.5-.5s.2-.5.5-.5h1c.3 0 .5.2.5.5s-.2.5-.5.5zm-5 0h-1c-.3 0-.5-.2-.5-.5s.2-.5.5-.5h1c.3 0 .5.2.5.5s-.2.5-.5.5zm-5 0h-1c-.3 0-.5-.2-.5-.5s.2-.5.5-.5h1c.3 0 .5.2.5.5s-.2.5-.5.5zm-5 0h-1c-.3 0-.5-.2-.5-.5s.2-.5.5-.5h1c.3 0 .5.2.5.5s-.2.5-.5.5z"/><path d="M340.4 181.193l-.7-.8 3.1-3.1H336v-1h6.8l-3.1-3.1.7-.8 4.3 4.4zm4.3-19.9h-1c-.3 0-.5-.2-.5-.5s.2-.5.5-.5h1c.3 0 .5.2.5.5s-.2.5-.5.5zm-5 0h-1c-.3 0-.5-.2-.5-.5s.2-.5.5-.5h1c.3 0 .5.2.5.5s-.2.5-.5.5zm-5 0h-1c-.3 0-.5-.2-.5-.5s.2-.5.5-.5h1c.3 0 .5.2.5.5s-.2.5-.5.5zm-5 0h-1c-.3 0-.5-.2-.5-.5s.2-.5.5-.5h1c.3 0 .5.2.5.5s-.2.5-.5.5zm-5 0h-1c-.3 0-.5-.2-.5-.5s.2-.5.5-.5h1c.3 0 .5.2.5.5s-.2.5-.5.5zm-5 0h-1c-.3 0-.5-.2-.5-.5s.2-.5.5-.5h1c.3 0 .5.2.5.5s-.2.5-.5.5zm-5 0h-1c-.3 0-.5-.2-.5-.5s.2-.5.5-.5h1c.3 0 .5.2.5.5s-.2.5-.5.5zm-5 0h-1c-.3 0-.5-.2-.5-.5s.2-.5.5-.5h1c.3 0 .5.2.5.5s-.2.5-.5.5zm-5 0h-1c-.3 0-.5-.2-.5-.5s.2-.5.5-.5h1c.3 0 .5.2.5.5s-.2.5-.5.5zm-5 0h-1c-.3 0-.5-.2-.5-.5s.2-.5.5-.5h1c.3 0 .5.2.5.5s-.2.5-.5.5zm-5 0h-1c-.3 0-.5-.2-.5-.5s.2-.5.5-.5h1c.3 0 .5.2.5.5s-.2.5-.5.5zm-5 0h-1c-.3 0-.5-.2-.5-.5s.2-.5.5-.5h1c.3 0 .5.2.5.5s-.2.5-.5.5zm-5 0h-1c-.3 0-.5-.2-.5-.5s.2-.5.5-.5h1c.3 0 .5.2.5.5s-.2.5-.5.5zm-5 0h-1c-.3 0-.5-.2-.5-.5s.2-.5.5-.5h1c.3 0 .5.2.5.5s-.2.5-.5.5zm-6.2 3.9l-4.3-4.4 4.3-4.4.7.8-3.1 3.1h6.8v1h-6.8l3.1 3.1z"/><text transform="translate(49.353 146.564)"><tspan font-family="Roboto" font-size="10" font-weight="400" x="0" y="9">Control</tspan></text><text transform="translate(46.306 180.393)"><tspan font-family="Roboto" font-size="10" font-weight="400" x="6.285" y="9">Data</tspan></text><path d="M88.154 160.864h-1c-.3 0-.5-.2-.5-.5s.2-.5.5-.5h1c.3 0 .5.2.5.5s-.2.5-.5.5zm-5 0h-1c-.3 0-.5-.2-.5-.5s.2-.5.5-.5h1c.3 0 .5.2.5.5s-.2.5-.5.5zm-5 0h-1c-.3 0-.5-.2-.5-.5s.2-.5.5-.5h1c.3 0 .5.2.5.5s-.2.5-.5.5zm-5 0h-1c-.3 0-.5-.2-.5-.5s.2-.5.5-.5h1c.3 0 .5.2.5.5s-.2.5-.5.5zm-5 0h-1c-.3 0-.5-.2-.5-.5s.2-.5.5-.5h1c.3 0 .5.2.5.5s-.2.5-.5.5zm-5 0h-1c-.3 0-.5-.2-.5-.5s.2-.5.5-.5h1c.3 0 .5.2.5.5s-.2.5-.5.5zm-5 0h-1c-.3 0-.5-.2-.5-.5s.2-.5.5-.5h1c.3 0 .5.2.5.5s-.2.5-.5.5zm-5 0h-1c-.3 0-.5-.2-.5-.5s.2-.5.5-.5h1c.3 0 .5.2.5.5s-.2.5-.5.5zm-5 0h-1c-.3 0-.5-.2-.5-.5s.2-.5.5-.5h1c.3 0 .5.2.5.5s-.2.5-.5.5z"/><path d="M42.454 164.764l-4.3-4.4 4.3-4.4.7.8-3.1 3.1h6.8v1h-6.8l3.1 3.1zm36.5 12.66h-.8c-.3 0-.5-.2-.5-.5s.2-.5.5-.5h.8c.3 0 .5.2.5.5s-.2.5-.5.5zm-4.8 0h-1c-.3 0-.5-.2-.5-.5s.2-.5.5-.5h1c.3 0 .5.2.5.5s-.2.5-.5.5zm-5 0h-1c-.3 0-.5-.2-.5-.5s.2-.5.5-.5h1c.3 0 .5.2.5.5s-.2.5-.5.5zm-5 0h-1c-.3 0-.5-.2-.5-.5s.2-.5.5-.5h1c.3 0 .5.2.5.5s-.2.5-.5.5zm-5 0h-1c-.3 0-.5-.2-.5-.5s.2-.5.5-.5h1c.3 0 .5.2.5.5s-.2.5-.5.5zm-5 0h-1c-.3 0-.5-.2-.5-.5s.2-.5.5-.5h1c.3 0 .5.2.5.5s-.2.5-.5.5zm-5 0h-1c-.3 0-.5-.2-.5-.5s.2-.5.5-.5h1c.3 0 .5.2.5.5s-.2.5-.5.5zm-5 0h-1c-.3 0-.5-.2-.5-.5s.2-.5.5-.5h1c.3 0 .5.2.5.5s-.2.5-.5.5zm-5 0h-1c-.3 0-.5-.2-.5-.5s.2-.5.5-.5h1c.3 0 .5.2.5.5s-.2.5-.5.5z"/><path d="M83.254 181.324l-.7-.8 3.2-3.1h-6.8v-1h6.8l-3.2-3.1.7-.8 4.4 4.4zM34.65 280.55h-1c-.3 0-.5-.2-.5-.5s.2-.5.5-.5h1c.3 0 .5.2.5.5s-.2.5-.5.5zm-5 0h-1c-.3 0-.5-.2-.5-.5s.2-.5.5-.5h1c.3 0 .5.2.5.5s-.2.5-.5.5zm7.4-1.6c-.3 0-.5-.2-.5-.5v-1c0-.3.2-.5.5-.5s.5.2.5.5v1c0 .3-.2.5-.5.5zm0-5c-.3 0-.5-.2-.5-.5v-1c0-.3.2-.5.5-.5s.5.2.5.5v1c0 .3-.2.5-.5.5zm0-5c-.3 0-.5-.2-.5-.5v-1c0-.3.2-.5.5-.5s.5.2.5.5v1c0 .3-.2.5-.5.5zm0-5c-.3 0-.5-.2-.5-.5v-1c0-.3.2-.5.5-.5s.5.2.5.5v1c0 .3-.2.5-.5.5zm0-5c-.3 0-.5-.2-.5-.5v-1c0-.3.2-.5.5-.5s.5.2.5.5v1c0 .3-.2.5-.5.5zm0-5c-.3 0-.5-.2-.5-.5v-1c0-.3.2-.5.5-.5s.5.2.5.5v1c0 .3-.2.5-.5.5zm0-5c-.3 0-.5-.2-.5-.5v-1c0-.3.2-.5.5-.5s.5.2.5.5v1c0 .3-.2.5-.5.5zm0-5c-.3 0-.5-.2-.5-.5v-1c0-.3.2-.5.5-.5s.5.2.5.5v1c0 .3-.2.5-.5.5zm0-5c-.3 0-.5-.2-.5-.5v-1c0-.3.2-.5.5-.5s.5.2.5.5v1c0 .3-.2.5-.5.5zm0-5c-.3 0-.5-.2-.5-.5v-1c0-.3.2-.5.5-.5s.5.2.5.5v1c0 .3-.2.5-.5.5zm0-5c-.3 0-.5-.2-.5-.5v-1c0-.3.2-.5.5-.5s.5.2.5.5v1c0 .3-.2.5-.5.5zm0-5c-.3 0-.5-.2-.5-.5v-1c0-.3.2-.5.5-.5s.5.2.5.5v1c0 .3-.2.5-.5.5zm0-5c-.3 0-.5-.2-.5-.5v-1c0-.3.2-.5.5-.5s.5.2.5.5v1c0 .3-.2.5-.5.5zm0-5c-.3 0-.5-.2-.5-.5v-1c0-.3.2-.5.5-.5s.5.2.5.5v1c0 .3-.2.5-.5.5zm0-5c-.3 0-.5-.2-.5-.5v-1c0-.3.2-.5.5-.5s.5.2.5.5v1c0 .3-.2.5-.5.5zm0-5c-.3 0-.5-.2-.5-.5v-1c0-.3.2-.5.5-.5s.5.2.5.5v1c0 .3-.2.5-.5.5zm0-5c-.3 0-.5-.2-.5-.5v-1c0-.3.2-.5.5-.5s.5.2.5.5v1c0 .3-.2.5-.5.5zm0-5c-.3 0-.5-.2-.5-.5v-1c0-.3.2-.5.5-.5s.5.2.5.5v1c0 .3-.2.5-.5.5zm0-5c-.3 0-.5-.2-.5-.5v-1c0-.3.2-.5.5-.5s.5.2.5.5v1c0 .3-.2.5-.5.5zm0-5c-.3 0-.5-.2-.5-.5v-1c0-.3.2-.5.5-.5s.5.2.5.5v1c0 .3-.2.5-.5.5zm0-5c-.3 0-.5-.2-.5-.5v-1c0-.3.2-.5.5-.5s.5.2.5.5v1c0 .3-.2.5-.5.5zm0-5c-.3 0-.5-.2-.5-.5v-1c0-.3.2-.5.5-.5s.5.2.5.5v1c0 .3-.2.5-.5.5zm0-5c-.3 0-.5-.2-.5-.5v-1c0-.3.2-.5.5-.5s.5.2.5.5v1c0 .3-.2.5-.5.5zm0-5c-.3 0-.5-.2-.5-.5v-1c0-.3.2-.5.5-.5s.5.2.5.5v1c0 .3-.2.5-.5.5zm0-5c-.3 0-.5-.2-.5-.5v-1c0-.3.2-.5.5-.5s.5.2.5.5v1c0 .3-.2.5-.5.5zm0-5c-.3 0-.5-.2-.5-.5v-1c0-.3.2-.5.5-.5s.5.2.5.5v1c0 .3-.2.5-.5.5zm0-5c-.3 0-.5-.2-.5-.5v-1c0-.3.2-.5.5-.5s.5.2.5.5v1c0 .3-.2.5-.5.5zm0-5c-.3 0-.5-.2-.5-.5v-1c0-.3.2-.5.5-.5s.5.2.5.5v1c0 .3-.2.5-.5.5zm0-5c-.3 0-.5-.2-.5-.5v-1c0-.3.2-.5.5-.5s.5.2.5.5v1c0 .3-.2.5-.5.5zm0-5c-.3 0-.5-.2-.5-.5v-1c0-.3.2-.5.5-.5s.5.2.5.5v1c0 .3-.2.5-.5.5zm0-5c-.3 0-.5-.2-.5-.5v-1c0-.3.2-.5.5-.5s.5.2.5.5v1c0 .3-.2.5-.5.5zm0-5c-.3 0-.5-.2-.5-.5v-1c0-.3.2-.5.5-.5s.5.2.5.5v1c0 .3-.2.5-.5.5zm0-5c-.3 0-.5-.2-.5-.5v-1c0-.3.2-.5.5-.5s.5.2.5.5v1c0 .3-.2.5-.5.5zm0-5c-.3 0-.5-.2-.5-.5v-1c0-.3.2-.5.5-.5s.5.2.5.5v1c0 .3-.2.5-.5.5zm0-5c-.3 0-.5-.2-.5-.5v-1c0-.3.2-.5.5-.5s.5.2.5.5v1c0 .3-.2.5-.5.5zm0-5c-.3 0-.5-.2-.5-.5v-1c0-.3.2-.5.5-.5s.5.2.5.5v1c0 .3-.2.5-.5.5zm0-5c-.3 0-.5-.2-.5-.5v-1c0-.3.2-.5.5-.5s.5.2.5.5v1c0 .3-.2.5-.5.5zm0-5c-.3 0-.5-.2-.5-.5v-1c0-.3.2-.5.5-.5s.5.2.5.5v1c0 .3-.2.5-.5.5zm0-5c-.3 0-.5-.2-.5-.5v-1c0-.3.2-.5.5-.5s.5.2.5.5v1c0 .3-.2.5-.5.5zm0-5c-.3 0-.5-.2-.5-.5v-1c0-.3.2-.5.5-.5s.5.2.5.5v1c0 .3-.2.5-.5.5zm0-5c-.3 0-.5-.2-.5-.5v-1c0-.3.2-.5.5-.5s.5.2.5.5v1c0 .3-.2.5-.5.5zm-2.6-2.4h-1c-.3 0-.5-.2-.5-.5s.2-.5.5-.5h1c.3 0 .5.2.5.5s-.3.5-.5.5zm-5 0h-1c-.3 0-.5-.2-.5-.5s.2-.5.5-.5h1c.3 0 .5.2.5.5s-.3.5-.5.5zm-6.4 207c-.9 0-1.8-.3-2.5-1-1.4-1.4-1.4-3.6 0-4.9 1.4-1.4 3.6-1.4 5 0s1.4 3.6 0 4.9c-.7.7-1.6 1-2.5 1zm0-6c-.6 0-1.3.2-1.8.7-1 1-1 2.6 0 3.5 1 1 2.6 1 3.5 0 1-1 1-2.6 0-3.5-.4-.5-1.1-.7-1.7-.7z"/><path d="M25.45 79.55c-.9 0-1.8-.3-2.5-1-1.4-1.4-1.4-3.6 0-5s3.6-1.4 5 0 1.4 3.6 0 4.9c-.7.8-1.6 1.1-2.5 1.1zm0-6c-.7 0-1.3.2-1.8.7-1 1-1 2.6 0 3.5s2.6 1 3.5 0 1-2.6 0-3.5c-.5-.5-1.1-.7-1.7-.7z"/></g></g></svg>